<svg id="visual" viewBox="0 0 600 900" width="600" height="900" xmlns="http://www.w3.org/2000/svg" xmlns:xlink="http://www.w3.org/1999/xlink" version="1.1"><rect x="0" y="0" width="600" height="900" fill="#00324b"></rect><path d="M0 452L5.8 447.3C11.7 442.7 23.3 433.3 35.2 438.5C47 443.7 59 463.3 70.8 459.2C82.7 455 94.3 427 106 408.3C117.7 389.7 129.3 380.3 141 399.7C152.7 419 164.3 467 176.2 490.3C188 513.7 200 512.3 211.8 486.7C223.7 461 235.3 411 247 402.2C258.7 393.3 270.3 425.7 282.2 448C294 470.3 306 482.7 317.8 489.8C329.7 497 341.3 499 353 505.7C364.7 512.3 376.3 523.7 388.2 511.7C400 499.7 412 464.3 423.8 453.8C435.7 443.3 447.3 457.7 459 472.2C470.7 486.7 482.3 501.3 494 509.2C505.7 517 517.3 518 529.2 508.7C541 499.3 553 479.7 564.8 469.8C576.7 460 588.3 460 594.2 460L600 460L600 0L594.2 0C588.3 0 576.7 0 564.8 0C553 0 541 0 529.2 0C517.3 0 505.7 0 494 0C482.3 0 470.7 0 459 0C447.3 0 435.7 0 423.8 0C412 0 400 0 388.2 0C376.3 0 364.7 0 353 0C341.3 0 329.7 0 317.8 0C306 0 294 0 282.2 0C270.3 0 258.7 0 247 0C235.3 0 223.7 0 211.8 0C200 0 188 0 176.2 0C164.3 0 152.7 0 141 0C129.3 0 117.7 0 106 0C94.3 0 82.7 0 70.8 0C59 0 47 0 35.2 0C23.3 0 11.7 0 5.8 0L0 0Z" fill="#00324b" stroke-linecap="round" stroke-linejoin="miter"></path></svg>