<svg id="visual" viewBox="0 0 900 600" width="900" height="600" xmlns="http://www.w3.org/2000/svg" xmlns:xlink="http://www.w3.org/1999/xlink" version="1.1"><rect x="0" y="0" width="900" height="600" fill="#00324b"></rect><path d="M446 600L448.8 591.7C451.7 583.3 457.3 566.7 455.8 550C454.3 533.3 445.7 516.7 440.2 500C434.7 483.3 432.3 466.7 438.3 450C444.3 433.3 458.7 416.7 462.5 400C466.3 383.3 459.7 366.7 452.8 350C446 333.3 439 316.7 440.8 300C442.7 283.3 453.3 266.7 459.5 250C465.7 233.3 467.3 216.7 462.3 200C457.3 183.3 445.7 166.7 445.8 150C446 133.3 458 116.7 466.8 100C475.7 83.3 481.3 66.7 484 50C486.7 33.3 486.3 16.7 486.2 8.3L486 0L900 0L900 8.3C900 16.7 900 33.3 900 50C900 66.7 900 83.3 900 100C900 116.7 900 133.3 900 150C900 166.7 900 183.3 900 200C900 216.7 900 233.3 900 250C900 266.7 900 283.3 900 300C900 316.7 900 333.3 900 350C900 366.7 900 383.3 900 400C900 416.7 900 433.3 900 450C900 466.7 900 483.3 900 500C900 516.7 900 533.3 900 550C900 566.7 900 583.3 900 591.7L900 600Z" fill="#ffffff" stroke-linecap="round" stroke-linejoin="miter"></path></svg>