<svg id="visual" viewBox="0 0 600 900" width="600" height="900" xmlns="http://www.w3.org/2000/svg" xmlns:xlink="http://www.w3.org/1999/xlink" version="1.1"><rect x="0" y="0" width="600" height="900" fill="#ffffff"></rect><path d="M0 180L5.8 178.2C11.7 176.3 23.3 172.7 35.2 174.8C47 177 59 185 70.8 183.3C82.7 181.7 94.3 170.3 106 162.8C117.7 155.3 129.3 151.7 141 159.3C152.7 167 164.3 186 176.2 195.3C188 204.7 200 204.3 211.8 194.2C223.7 184 235.3 164 247 160.5C258.7 157 270.3 170 282.2 178.8C294 187.7 306 192.3 317.8 195.2C329.7 198 341.3 199 353 201.7C364.7 204.3 376.3 208.7 388.2 203.8C400 199 412 185 423.8 180.8C435.7 176.7 447.3 182.3 459 188.2C470.7 194 482.3 200 494 203.2C505.7 206.3 517.3 206.7 529.2 202.8C541 199 553 191 564.8 187C576.7 183 588.3 183 594.2 183L600 183L600 0L594.2 0C588.3 0 576.7 0 564.8 0C553 0 541 0 529.2 0C517.3 0 505.7 0 494 0C482.3 0 470.7 0 459 0C447.3 0 435.7 0 423.8 0C412 0 400 0 388.2 0C376.3 0 364.7 0 353 0C341.3 0 329.7 0 317.8 0C306 0 294 0 282.2 0C270.3 0 258.7 0 247 0C235.3 0 223.7 0 211.8 0C200 0 188 0 176.2 0C164.3 0 152.7 0 141 0C129.3 0 117.7 0 106 0C94.3 0 82.7 0 70.8 0C59 0 47 0 35.2 0C23.3 0 11.7 0 5.8 0L0 0Z" fill="#00324b" stroke-linecap="round" stroke-linejoin="miter"></path></svg>